<svg width="36" height="24" viewBox="0 0 36 24" fill="none" xmlns="http://www.w3.org/2000/svg">
<path d="M27.7671 18.4224L30.9712 14.6916C31.3179 14.288 31.9429 14.288 32.2896 14.6916L35.4726 18.3985" stroke="#C39B54" stroke-width="1.5" stroke-miterlimit="10" stroke-linecap="round" stroke-linejoin="round"/>
<path d="M0.527344 18.3985L3.71039 14.6916C4.05703 14.288 4.68211 14.288 5.02875 14.6916L8.23289 18.4224" stroke="#C39B54" stroke-width="1.5" stroke-miterlimit="10" stroke-linecap="round" stroke-linejoin="round"/>
<path d="M31.0125 21.6538L18.9893 9.68121C18.4424 9.13657 17.5579 9.13657 17.0109 9.68121L4.98779 21.6538" stroke="#C39B54" stroke-width="1.5" stroke-miterlimit="10" stroke-linecap="round" stroke-linejoin="round"/>
<path d="M35.4728 10.1704V2.33127C35.4728 1.88247 35.0581 1.54876 34.6197 1.64488C25.3393 3.68127 15.7964 3.99296 6.43555 2.58003" stroke="#C39B54" stroke-width="1.5" stroke-miterlimit="10" stroke-linecap="round" stroke-linejoin="round"/>
<path d="M3.97441 2.16821C3.10774 2.00874 2.24297 1.83443 1.38045 1.64515C0.942117 1.54896 0.527344 1.88267 0.527344 2.33147V21.6681C0.527344 22.1169 0.942117 22.4506 1.38045 22.3545C12.3382 19.95 23.6618 19.95 34.6196 22.3545C35.0579 22.4506 35.4727 22.1169 35.4727 21.6681V12.6316" stroke="#C39B54" stroke-width="1.5" stroke-miterlimit="10" stroke-linecap="round" stroke-linejoin="round"/>
<path d="M26.3252 21V3" stroke="#C39B54" stroke-width="1.5" stroke-miterlimit="10" stroke-linecap="round" stroke-linejoin="round"/>
<path d="M9.6748 21V3" stroke="#C39B54" stroke-width="1.5" stroke-miterlimit="10" stroke-linecap="round" stroke-linejoin="round"/>
<path d="M30.064 7.29004C29.2873 7.29004 28.6577 7.91962 28.6577 8.69629C28.6577 9.47296 29.2873 10.1025 30.064 10.1025C30.8406 10.1025 31.4702 9.47296 31.4702 8.69629C31.4702 7.91962 30.8406 7.29004 30.064 7.29004Z" stroke="#C39B54" stroke-width="1.5" stroke-miterlimit="10" stroke-linecap="round" stroke-linejoin="round"/>
<path d="M13.3691 13.3078L15.6121 15.0689C15.8981 15.2934 16.3071 15.2669 16.5618 15.0075L18.1032 13.4371C18.2848 13.2521 18.5565 13.1882 18.8014 13.273L24.6165 15.2847" stroke="#C39B54" stroke-width="1.5" stroke-miterlimit="10" stroke-linecap="round" stroke-linejoin="round"/>
</svg>
