<svg width="34" height="36" viewBox="0 0 34 36" fill="none" xmlns="http://www.w3.org/2000/svg">
<path d="M28.1116 14.3657L31.3773 16.1891C32.7969 16.9816 32.7969 19.0184 31.3773 19.811L28.0477 21.67L19.2395 26.5878C17.8482 27.3646 16.1519 27.3646 14.7606 26.5878L2.62276 19.811C1.20322 19.0184 1.20322 16.9816 2.62276 16.1891L5.80412 14.4128" stroke="#C39B54" stroke-width="1.5" stroke-miterlimit="10" stroke-linecap="round" stroke-linejoin="round"/>
<path d="M14.7606 19.1644L2.62276 12.3876C1.20322 11.595 1.20322 9.55821 2.62276 8.76565L14.7606 1.98886C16.1519 1.21205 17.8482 1.21205 19.2395 1.98886L31.3773 8.76565C32.7969 9.55821 32.7969 11.595 31.3773 12.3876L19.2395 19.1644C17.8482 19.9412 16.1519 19.9412 14.7606 19.1644Z" stroke="#C39B54" stroke-width="1.5" stroke-miterlimit="10" stroke-linecap="round" stroke-linejoin="round"/>
<path d="M5.8366 21.8179L2.62276 23.6122C1.20322 24.4048 1.20322 26.4416 2.62276 27.2342L14.7606 34.011C16.1519 34.7878 17.8482 34.7878 19.2395 34.011L19.3871 33.9286" stroke="#C39B54" stroke-width="1.5" stroke-miterlimit="10" stroke-linecap="round" stroke-linejoin="round"/>
<path d="M25.5269 30.5006L31.3773 27.2342C32.7968 26.4416 32.7968 24.4048 31.3773 23.6122L28.1853 21.8301" stroke="#C39B54" stroke-width="1.5" stroke-miterlimit="10" stroke-linecap="round" stroke-linejoin="round"/>
</svg>
