<svg width="34" height="34" viewBox="0 0 34 34" fill="none" xmlns="http://www.w3.org/2000/svg">
<path d="M5.1875 33.8047H28.8125C30.1361 33.8033 31.405 33.2769 32.3409 32.3409C33.2769 31.405 33.8033 30.1361 33.8047 28.8125V5.1875C33.8033 3.86392 33.2769 2.59496 32.3409 1.65905C31.405 0.723142 30.1361 0.196727 28.8125 0.195312H5.1875C3.86392 0.196727 2.59496 0.723142 1.65905 1.65905C0.723142 2.59496 0.196727 3.86392 0.195312 5.1875V28.8125C0.196727 30.1361 0.723142 31.405 1.65905 32.3409C2.59496 33.2769 3.86392 33.8033 5.1875 33.8047ZM1.17969 5.1875C1.18095 4.12495 1.60361 3.10628 2.35495 2.35495C3.10628 1.60361 4.12495 1.18095 5.1875 1.17969H28.8125C29.875 1.18095 30.8937 1.60361 31.6451 2.35495C32.3964 3.10628 32.819 4.12495 32.8203 5.1875V28.8125C32.819 29.875 32.3964 30.8937 31.6451 31.6451C30.8937 32.3964 29.875 32.819 28.8125 32.8203H5.1875C4.12495 32.819 3.10628 32.3964 2.35495 31.6451C1.60361 30.8937 1.18095 29.875 1.17969 28.8125V5.1875Z" fill="#C39B54"/>
<path d="M10.5312 28.7176H13.9557C14.0863 28.7176 14.2115 28.6657 14.3038 28.5734C14.3961 28.4811 14.4479 28.3559 14.4479 28.2254V19.2046H18.125C19.9712 19.2046 21.7417 18.4712 23.0471 17.1658C24.3526 15.8603 25.0859 14.0898 25.0859 12.2437C25.0859 10.3975 24.3526 8.62696 23.0471 7.32153C21.7417 6.0161 19.9712 5.28271 18.125 5.28271H10.5312C10.4007 5.28279 10.2756 5.33467 10.1833 5.42696C10.091 5.51924 10.0391 5.64439 10.0391 5.7749V28.2254C10.0391 28.3559 10.091 28.4811 10.1833 28.5734C10.2756 28.6656 10.4007 28.7175 10.5312 28.7176ZM11.0234 6.26709H18.125C19.7101 6.26709 21.2302 6.89676 22.3511 8.01758C23.4719 9.13841 24.1016 10.6586 24.1016 12.2437C24.1016 13.8287 23.4719 15.3489 22.3511 16.4697C21.2302 17.5905 19.7101 18.2202 18.125 18.2202H13.9557C13.8252 18.2203 13.7001 18.2722 13.6078 18.3645C13.5155 18.4567 13.4636 18.5819 13.4636 18.7124V27.7332H11.0234V6.26709Z" fill="#C39B54"/>
<path d="M13.9355 15.5987H18.305C20.1666 15.5987 21.68 14.0031 21.68 12.0422C21.68 10.0814 20.1658 8.48584 18.305 8.48584H13.9355C13.805 8.48591 13.6799 8.53779 13.5876 8.63008C13.4953 8.72237 13.4434 8.84751 13.4434 8.97803V15.1065C13.4434 15.237 13.4953 15.3621 13.5876 15.4544C13.6799 15.5467 13.805 15.5986 13.9355 15.5987ZM14.4277 9.47021H18.305C19.6238 9.47021 20.6957 10.6233 20.6957 12.0422C20.6957 13.4612 19.623 14.6143 18.305 14.6143H14.4277V9.47021Z" fill="#C39B54"/>
</svg>
